<svg width="551" height="369" xmlns="http://www.w3.org/2000/svg" xmlns:xlink="http://www.w3.org/1999/xlink" overflow="hidden"><defs><clipPath id="clip0"><rect x="210" y="181" width="551" height="369"/></clipPath></defs><g clip-path="url(#clip0)" transform="translate(-210 -181)"><path d="M0 0 133.824 87.7488" stroke="#4472C4" stroke-width="0.666667" stroke-miterlimit="8" stroke-dasharray="5.33333 2" fill="none" fill-rule="evenodd" transform="matrix(1 0 0 -1 563.5 317.249)"/><path d="M498.188 404.377C440.877 358.747 425.534 282.673 463.919 234.461 502.305 186.249 579.882 184.157 637.194 229.787 694.505 275.417 709.848 351.491 671.463 399.703 633.077 447.915 555.5 450.008 498.188 404.377Z" stroke="#000000" stroke-width="1.33333" stroke-miterlimit="8" fill="none" fill-rule="evenodd"/><path d="M0.779835-0.625985 245.803 304.617 244.243 305.869-0.779835 0.625985ZM247.307 301.699 249.196 310.441 241.069 306.707Z" transform="matrix(1 0 0 -1 267 512.441)"/><path d="M0.268324-0.963329 398.504 109.961 397.968 111.887-0.268324 0.963329ZM398.024 106.713 404.657 112.713 395.878 114.419Z" transform="matrix(1 0 0 -1 267 512.713)"/><path d="M0.550742-0.834675 291.024 190.828 289.923 192.497-0.550742 0.834675ZM291.563 187.589 296.037 195.333 287.157 194.266Z" fill="#7F7F7F" transform="matrix(1 0 0 -1 267 512.333)"/><path d="M561.915 317.485 517.587 208.552 519.439 207.798 563.767 316.731ZM515.31 210.918 516 202 522.72 207.902Z" fill="#7F7F7F"/><path d="M563.605 316.204 666.92 394.789 665.709 396.381 562.395 317.796ZM667.675 391.594 671.62 399.621 662.831 397.961Z" fill="#7F7F7F"/><text font-family="Cambria Math,Cambria Math_MSFontService,sans-serif" font-weight="400" font-size="24" transform="translate(475.706 345)">𝒙<tspan font-size="18" x="13.8333" y="5">∥</tspan><tspan font-size="24" x="56.526" y="-112">𝒙</tspan><tspan font-size="18" x="70.3593" y="-107">⊥</tspan><tspan font-size="24" x="154.955" y="14">𝒙</tspan><tspan font-size="18" x="168.788" y="19">⊥</tspan><tspan font-size="18" x="168.788" y="5">′</tspan></text><path d="M544.181 273.18 549.356 272.338 554.538 271.896 559.663 271.959 564.656 272.464 569.528 273.35 574.335 274.742 578.89 276.45 583.272 278.609 591.173 283.919 597.943 290.562 600.744 294.382 603.152 298.437 605.183 302.752 606.706 307.324 607.723 312.023 608.167 316.786 608.104 321.545 607.532 326.246 606.389 330.883 604.735 335.399 603.316 338.028 602.143 337.394 603.538 334.808 603.499 334.896 605.124 330.458 605.103 330.528 606.228 325.965 606.213 326.045 606.776 321.42 606.771 321.491 606.833 316.804 606.836 316.875 606.399 312.187 606.411 312.266 605.411 307.641 605.43 307.711 603.93 303.211 603.959 303.284 601.959 299.034 601.989 299.09 599.614 295.09 599.65 295.144 596.9 291.394 596.971 291.476 590.283 284.913 590.378 284.991 582.566 279.741 582.643 279.786 578.33 277.661 578.391 277.687 573.891 275.999 573.94 276.015 569.19 274.64 569.256 274.656 564.443 273.781 564.495 273.788 559.558 273.288 559.617 273.292 554.554 273.229 554.619 273.227 549.494 273.664 549.545 273.658 544.395 274.496ZM606.852 338.594 599.344 343.454 599.961 334.531Z" fill="#4472C4"/><path d="M0.483586-0.678667 50.8163 35.186 49.8491 36.5433-0.483586 0.678667ZM51.568 31.8333 55.762 39.7333 46.9256 38.3485Z" fill="#4472C4" transform="matrix(1 0 0 -1 697 229.733)"/><path d="M339.906 432.455 343.496 434.061 346.678 436.983 349.548 440.618 352.276 445.059 354.681 450.249 356.711 456.049 355.452 456.49 353.433 450.72 353.458 450.78 351.083 445.655 351.12 445.724 348.432 441.349 348.477 441.413 345.664 437.851 345.737 437.929 342.674 435.116 342.853 435.234 339.362 433.672ZM340.042 437.26 333.135 431.577 341.826 429.462Z" fill="#4472C4"/><text font-family="Cambria Math,Cambria Math_MSFontService,sans-serif" font-weight="400" font-size="24" transform="translate(590.31 279)">𝜃<tspan font-size="24" x="-237.881" y="157">𝛼</tspan><tspan font-size="24" x="-110.569" y="201">𝒙</tspan><tspan font-size="18" x="-96.7352" y="192">′</tspan><tspan font-size="24" x="-211.235" y="65">𝒙</tspan><tspan font-size="24" x="123.288" y="-75">𝒏</tspan></text><path d="M0 0 55.9174 36.4982" stroke="#4472C4" stroke-width="0.666667" stroke-miterlimit="8" stroke-dasharray="5.33333 2" fill="none" fill-rule="evenodd" transform="matrix(1 0 0 -1 211.5 548.998)"/></g></svg>